<svg width="15" height="17" viewBox="0 0 15 17" fill="none" xmlns="http://www.w3.org/2000/svg">
<path d="M8.74944 14.7222C8.62247 14.9411 8.44022 15.1228 8.22094 15.2491C8.00166 15.3754 7.75305 15.4419 7.5 15.4419C7.24695 15.4419 6.99834 15.3754 6.77906 15.2491C6.55978 15.1228 6.37753 14.9411 6.25056 14.7222M11.8333 5.33333C11.8333 4.18406 11.3768 3.08186 10.5641 2.2692C9.75147 1.45655 8.64927 1 7.5 1C6.35073 1 5.24853 1.45655 4.43587 2.2692C3.62321 3.08186 3.16667 4.18406 3.16667 5.33333C3.16667 10.3889 1 11.8333 1 11.8333H14C14 11.8333 11.8333 10.3889 11.8333 5.33333Z" stroke="white" stroke-width="1.35393" stroke-linecap="round" stroke-linejoin="round"/>
</svg>
