<svg width="21" height="21" viewBox="0 0 21 21" fill="none" xmlns="http://www.w3.org/2000/svg">
<path d="M4.43951 18.4022C10.0465 14.7961 14.3349 7.96404 14.2107 1.27148" stroke="white" stroke-opacity="0.5" stroke-linecap="round" stroke-linejoin="round"/>
<path d="M11.52 0.666992C16.2883 6.6535 18.3595 13.0982 16.5139 18.4489" stroke="white" stroke-opacity="0.5" stroke-linecap="round" stroke-linejoin="round"/>
<path d="M0.725098 11.3682C5.30789 4.37332 11.7911 2.90774 18.6618 4.95518" stroke="white" stroke-opacity="0.5" stroke-linecap="round" stroke-linejoin="round"/>
<path d="M0.879944 8.60791C7.81297 15.5949 12.8846 16.5879 19.259 15.1377" stroke="white" stroke-opacity="0.5" stroke-linecap="round" stroke-linejoin="round"/>
<path d="M20.5 10.5C20.5 16.0228 16.0228 20.5 10.5 20.5C4.97721 20.5 0.5 16.0228 0.5 10.5M20.5 10.5C20.5 4.97721 16.0228 0.5 10.5 0.5C4.97721 0.5 0.5 4.97721 0.5 10.5" stroke="white" stroke-opacity="0.5" stroke-linecap="round" stroke-linejoin="round"/>
</svg>
