<svg width="14" height="14" viewBox="0 0 14 14" fill="none" xmlns="http://www.w3.org/2000/svg">
<path d="M7.58333 2.33398H1.75" stroke="white" stroke-width="1.5" stroke-linecap="round" stroke-linejoin="round"/>
<path d="M6.41667 11.084H1.75" stroke="white" stroke-width="1.5" stroke-linecap="round" stroke-linejoin="round"/>
<path d="M12.25 11.084H9.91663" stroke="white" stroke-width="1.5" stroke-linecap="round" stroke-linejoin="round"/>
<path d="M12.25 6.70898H6.41663" stroke="white" stroke-width="1.5" stroke-linecap="round" stroke-linejoin="round"/>
<path d="M12.25 2.33398H11.0834" stroke="white" stroke-width="1.5" stroke-linecap="round" stroke-linejoin="round"/>
<path d="M2.91667 6.70898H1.75" stroke="white" stroke-width="1.5" stroke-linecap="round" stroke-linejoin="round"/>
<path d="M8.45837 1.16602C8.73015 1.16602 8.86607 1.16602 8.97328 1.21042C9.1162 1.26962 9.22977 1.38318 9.28898 1.52612C9.33337 1.63332 9.33337 1.76922 9.33337 2.04102V2.62435C9.33337 2.89615 9.33337 3.03205 9.28898 3.13925C9.22977 3.28218 9.1162 3.39574 8.97328 3.45495C8.86607 3.49935 8.73015 3.49935 8.45837 3.49935C8.1866 3.49935 8.05068 3.49935 7.94347 3.45495C7.80055 3.39574 7.68697 3.28218 7.62777 3.13925C7.58337 3.03205 7.58337 2.89615 7.58337 2.62435V2.04102C7.58337 1.76922 7.58337 1.63332 7.62777 1.52612C7.68697 1.38318 7.80055 1.26962 7.94347 1.21042C8.05068 1.16602 8.1866 1.16602 8.45837 1.16602Z" stroke="white" stroke-width="1.5" stroke-linecap="round" stroke-linejoin="round"/>
<path d="M7.29163 9.91602C7.5634 9.91602 7.69932 9.91602 7.80653 9.96041C7.94945 10.0196 8.06303 10.1332 8.12223 10.2761C8.16663 10.3833 8.16663 10.5192 8.16663 10.791V11.3743C8.16663 11.6461 8.16663 11.782 8.12223 11.8893C8.06303 12.0322 7.94945 12.1457 7.80653 12.205C7.69932 12.2493 7.5634 12.2493 7.29163 12.2493C7.01985 12.2493 6.88393 12.2493 6.77672 12.205C6.6338 12.1457 6.52023 12.0322 6.46102 11.8893C6.41663 11.782 6.41663 11.6461 6.41663 11.3743V10.791C6.41663 10.5192 6.41663 10.3833 6.46102 10.2761C6.52023 10.1332 6.6338 10.0196 6.77672 9.96041C6.88393 9.91602 7.01985 9.91602 7.29163 9.91602Z" stroke="white" stroke-width="1.5" stroke-linecap="round" stroke-linejoin="round"/>
<path d="M5.54163 5.54102C5.81342 5.54102 5.94932 5.54102 6.05653 5.58542C6.19945 5.64462 6.31303 5.75818 6.37223 5.90111C6.41663 6.00832 6.41663 6.14424 6.41663 6.41602V6.99935C6.41663 7.27112 6.41663 7.40704 6.37223 7.51426C6.31303 7.65717 6.19945 7.77075 6.05653 7.82996C5.94932 7.87435 5.81342 7.87435 5.54163 7.87435C5.26983 7.87435 5.13393 7.87435 5.02673 7.82996C4.8838 7.77075 4.77023 7.65717 4.71103 7.51426C4.66663 7.40704 4.66663 7.27112 4.66663 6.99935V6.41602C4.66663 6.14424 4.66663 6.00832 4.71103 5.90111C4.77023 5.75818 4.8838 5.64462 5.02673 5.58542C5.13393 5.54102 5.26983 5.54102 5.54163 5.54102Z" stroke="white" stroke-width="1.5" stroke-linecap="round" stroke-linejoin="round"/>
</svg>
