<svg width="21" height="21" viewBox="0 0 21 21" fill="none" xmlns="http://www.w3.org/2000/svg">
<path d="M9.80237 16.0814C9.80237 16.2664 9.87587 16.4439 10.0067 16.5747C10.1376 16.7056 10.315 16.7791 10.5 16.7791C10.6851 16.7791 10.8625 16.7056 10.9934 16.5747C11.1242 16.4439 11.1977 16.2664 11.1977 16.0814V13.2907C11.1977 13.1057 11.1242 12.9282 10.9934 12.7974C10.8625 12.6665 10.6851 12.593 10.5 12.593C10.315 12.593 10.1376 12.6665 10.0067 12.7974C9.87587 12.9282 9.80237 13.1057 9.80237 13.2907V16.0814Z" fill="white"/>
<path fill-rule="evenodd" clip-rule="evenodd" d="M10.5 0.5C9.8414 0.5 9.24326 0.688837 8.59302 1.00419C7.96605 1.3093 7.24046 1.75953 6.33535 2.3214L4.41256 3.51488C3.55674 4.04698 2.8693 4.47302 2.34093 4.87767C1.79302 5.29628 1.37256 5.72419 1.06837 6.27953C0.765116 6.83302 0.629302 7.42279 0.563256 8.11953C0.5 8.79395 0.5 9.62 0.5 10.6553V12.1558C0.5 13.927 0.5 15.3251 0.642326 16.4181C0.787442 17.5391 1.09442 18.4442 1.78651 19.1595C2.4814 19.8786 3.36512 20.2005 4.46093 20.3521C5.5214 20.5 6.87767 20.5 8.58558 20.5H12.4144C14.1223 20.5 15.4786 20.5 16.5391 20.3521C17.634 20.2005 18.5186 19.8786 19.2144 19.1595C19.9056 18.4442 20.2126 17.5391 20.3586 16.4181C20.5 15.3251 20.5 13.927 20.5 12.1558V10.6553C20.5 9.62 20.5 8.79488 20.4367 8.11953C20.3716 7.42186 20.2349 6.83302 19.9316 6.27953C19.6274 5.72419 19.206 5.29721 18.6591 4.87767C18.1307 4.47209 17.4442 4.04698 16.5874 3.51488L14.6646 2.3214C13.7595 1.75953 13.034 1.3093 12.406 1.00419C11.7577 0.687907 11.1595 0.5 10.5 0.5ZM7.03953 3.52698C7.98372 2.94093 8.64884 2.52977 9.20419 2.25907C9.74465 1.99581 10.1279 1.89535 10.5 1.89535C10.8721 1.89535 11.2553 1.99581 11.7958 2.25907C12.3521 2.52884 13.0163 2.94093 13.9605 3.52698L15.8209 4.6814C16.7149 5.23674 17.3428 5.62651 17.8116 5.98558C18.2665 6.33442 18.5279 6.62186 18.7074 6.9493C18.887 7.27767 18.9921 7.66186 19.047 8.24977C19.1037 8.85256 19.1047 9.61256 19.1047 10.6898V12.1047C19.1047 13.9372 19.1028 15.2451 18.9744 16.2377C18.8479 17.2126 18.6088 17.7781 18.2116 18.1902C17.8163 18.5986 17.2786 18.8414 16.3474 18.9707C15.393 19.1028 14.1344 19.1047 12.3605 19.1047H8.63953C6.86465 19.1047 5.60698 19.1028 4.65256 18.9707C3.7214 18.8405 3.18372 18.5986 2.7893 18.1893C2.39116 17.7781 2.15209 17.2126 2.02651 16.2377C1.89628 15.2451 1.89535 13.9381 1.89535 12.1047V10.6898C1.89535 9.61256 1.89535 8.85256 1.95302 8.24977C2.00791 7.66186 2.11302 7.27767 2.29256 6.9493C2.47209 6.62186 2.73349 6.33442 3.1893 5.98558C3.65721 5.62651 4.28512 5.23674 5.17907 4.6814L7.03953 3.52698Z" fill="white"/>
</svg>
