<svg width="16" height="5" viewBox="0 0 16 5" fill="none" xmlns="http://www.w3.org/2000/svg">
<path d="M8 3.5C8.48325 3.5 8.875 3.05228 8.875 2.5C8.875 1.94772 8.48325 1.5 8 1.5C7.51675 1.5 7.125 1.94772 7.125 2.5C7.125 3.05228 7.51675 3.5 8 3.5Z" stroke="white" stroke-width="1.5" stroke-linecap="round" stroke-linejoin="round"/>
<path d="M14.125 3.5C14.6082 3.5 15 3.05228 15 2.5C15 1.94772 14.6082 1.5 14.125 1.5C13.6418 1.5 13.25 1.94772 13.25 2.5C13.25 3.05228 13.6418 3.5 14.125 3.5Z" stroke="white" stroke-width="1.5" stroke-linecap="round" stroke-linejoin="round"/>
<path d="M1.875 3.5C2.35825 3.5 2.75 3.05228 2.75 2.5C2.75 1.94772 2.35825 1.5 1.875 1.5C1.39175 1.5 1 1.94772 1 2.5C1 3.05228 1.39175 3.5 1.875 3.5Z" stroke="white" stroke-width="1.5" stroke-linecap="round" stroke-linejoin="round"/>
</svg>
