<svg width="21" height="21" viewBox="0 0 21 21" fill="none" xmlns="http://www.w3.org/2000/svg">
<path d="M10.5 0.5C13.1522 0.5 15.6957 1.55357 17.5711 3.42893C19.4464 5.3043 20.5 7.84784 20.5 10.5C20.5 13.1522 19.4464 15.6957 17.5711 17.5711C15.6957 19.4464 13.1522 20.5 10.5 20.5C7.84784 20.5 5.3043 19.4464 3.42893 17.5711C1.55357 15.6957 0.5 13.1522 0.5 10.5C0.5 7.84784 1.55357 5.3043 3.42893 3.42893C5.3043 1.55357 7.84784 0.5 10.5 0.5ZM10.5 19.0714C12.7733 19.0714 14.9535 18.1684 16.5609 16.5609C18.1684 14.9535 19.0714 12.7733 19.0714 10.5C19.0714 8.22672 18.1684 6.04654 16.5609 4.43908C14.9535 2.83163 12.7733 1.92857 10.5 1.92857C8.22672 1.92857 6.04654 2.83163 4.43908 4.43908C2.83163 6.04654 1.92857 8.22672 1.92857 10.5C1.92857 12.7733 2.83163 14.9535 4.43908 16.5609C6.04654 18.1684 8.22672 19.0714 10.5 19.0714ZM9.42857 13.5443L13.9957 10.5L9.42857 7.45571V13.5443ZM9.66571 5.89571L15.2343 9.60857C15.381 9.70642 15.5013 9.83898 15.5846 9.99448C15.6678 10.15 15.7113 10.3236 15.7113 10.5C15.7113 10.6764 15.6678 10.85 15.5846 11.0055C15.5013 11.161 15.381 11.2936 15.2343 11.3914L9.66571 15.1043C9.50436 15.2118 9.31684 15.2736 9.12315 15.283C8.92946 15.2923 8.73686 15.2489 8.56588 15.1574C8.39491 15.0659 8.25197 14.9298 8.15231 14.7634C8.05266 14.5971 8.00001 14.4068 8 14.2129V6.78571C8.00001 6.5918 8.05266 6.40152 8.15231 6.23517C8.25197 6.06882 8.39491 5.93263 8.56588 5.84113C8.73686 5.74963 8.92946 5.70625 9.12315 5.71561C9.31684 5.72497 9.50436 5.78673 9.66571 5.89429V5.89571Z" fill="white" fill-opacity="0.5"/>
</svg>
