<svg width="21" height="21" viewBox="0 0 21 21" fill="none" xmlns="http://www.w3.org/2000/svg">
<path d="M19.5337 20.3885C20.0512 20.9059 20.8498 20.1072 20.3324 19.601L16.1139 15.3713C17.5937 13.734 18.4116 11.6049 18.4088 9.39799C18.4088 4.45958 14.3928 0.443604 9.45438 0.443604C4.51597 0.443604 0.5 4.45958 0.5 9.39799C0.5 14.3364 4.51597 18.3524 9.45438 18.3524C11.6817 18.3524 13.7403 17.5312 15.3152 16.17L19.5337 20.3885ZM1.6238 9.39799C1.6238 5.07828 5.1448 1.56853 9.45326 1.56853C13.773 1.56853 17.2827 5.07828 17.2827 9.39799C17.2827 13.7177 13.773 17.2274 9.45326 17.2274C5.1448 17.2274 1.6238 13.7177 1.6238 9.39799Z" fill="white" fill-opacity="0.5"/>
</svg>
