<svg width="15" height="15" viewBox="0 0 15 15" fill="none" xmlns="http://www.w3.org/2000/svg">
<path d="M13.125 4.0625C13.125 5.09803 12.2856 5.9375 11.25 5.9375C10.2144 5.9375 9.375 5.09803 9.375 4.0625C9.375 3.02697 10.2144 2.1875 11.25 2.1875C12.2856 2.1875 13.125 3.02697 13.125 4.0625Z" stroke="white" stroke-width="1.5"/>
<path d="M5.625 7.5C5.625 8.53556 4.78553 9.375 3.75 9.375C2.71447 9.375 1.875 8.53556 1.875 7.5C1.875 6.46444 2.71447 5.625 3.75 5.625C4.78553 5.625 5.625 6.46444 5.625 7.5Z" stroke="white" stroke-width="1.5"/>
<path d="M13.125 10.9375C13.125 11.9731 12.2856 12.8125 11.25 12.8125C10.2144 12.8125 9.375 11.9731 9.375 10.9375C9.375 9.90194 10.2144 9.0625 11.25 9.0625C12.2856 9.0625 13.125 9.90194 13.125 10.9375Z" stroke="white" stroke-width="1.5"/>
<path d="M5.45532 6.71841L9.51781 4.84375M5.45532 8.28123L9.51781 10.1559" stroke="white" stroke-width="1.5"/>
</svg>
