<svg width="21" height="21" viewBox="0 0 21 21" fill="none" xmlns="http://www.w3.org/2000/svg">
<path d="M14.4999 8.5C14.4999 9.56087 14.0785 10.5783 13.3284 11.3284C12.5782 12.0786 11.5608 12.5 10.4999 12.5C9.43907 12.5 8.42166 12.0786 7.67151 11.3284C6.92137 10.5783 6.49994 9.56087 6.49994 8.5C6.49994 7.43913 6.92137 6.42172 7.67151 5.67157C8.42166 4.92143 9.43907 4.5 10.4999 4.5C11.5608 4.5 12.5782 4.92143 13.3284 5.67157C14.0785 6.42172 14.4999 7.43913 14.4999 8.5Z" fill="white" fill-opacity="0.5"/>
<path fill-rule="evenodd" clip-rule="evenodd" d="M10.092 20.492C4.7585 20.278 0.5 15.886 0.5 10.5C0.5 4.977 4.977 0.5 10.5 0.5C16.023 0.5 20.5 4.977 20.5 10.5C20.5 16.023 16.023 20.5 10.5 20.5C10.4543 20.5003 10.4087 20.5003 10.363 20.5C10.2725 20.5 10.182 20.497 10.092 20.492ZM4.083 16.81C4.00823 16.5953 3.98278 16.3665 4.00854 16.1406C4.0343 15.9147 4.1106 15.6975 4.23179 15.5051C4.35298 15.3128 4.51593 15.1502 4.70856 15.0294C4.90119 14.9086 5.11855 14.8328 5.3445 14.8075C9.2425 14.376 11.7815 14.415 15.6605 14.8165C15.8868 14.8401 16.1046 14.9149 16.2976 15.0354C16.4905 15.1559 16.6534 15.3189 16.7739 15.5119C16.8943 15.7048 16.9691 15.9227 16.9927 16.149C17.0162 16.3753 16.9877 16.6039 16.9095 16.8175C18.572 15.1354 19.503 12.865 19.5 10.5C19.5 5.5295 15.4705 1.5 10.5 1.5C5.5295 1.5 1.5 5.5295 1.5 10.5C1.5 12.958 2.4855 15.186 4.083 16.81Z" fill="white" fill-opacity="0.5"/>
</svg>
